<svg xmlns="http://www.w3.org/2000/svg" xmlns:xlink="http://www.w3.org/1999/xlink" width="512" height="512" x="0" y="0" viewBox="0 0 512 512" style="enable-background:new 0 0 512 512" xml:space="preserve" class=""><g><path d="M75 60.5c-8.262 0-15 6.738-15 15 0 8.261 6.738 15 15 15s15-6.739 15-15c0-8.262-6.738-15-15-15zM135 60.5c-8.262 0-15 6.738-15 15 0 8.261 6.738 15 15 15 8.261 0 15-6.739 15-15 0-8.262-6.738-15-15-15zM195 60.5c-8.262 0-15 6.738-15 15 0 8.261 6.738 15 15 15 8.261 0 15-6.739 15-15 0-8.262-6.738-15-15-15zM75 181.5c-8.262 0-15 6.739-15 15 0 8.262 6.738 15 15 15s15-6.739 15-15c0-8.262-6.738-15-15-15zM135 181.5c-8.262 0-15 6.739-15 15 0 8.262 6.738 15 15 15 8.261 0 15-6.739 15-15 0-8.262-6.738-15-15-15zM195 181.5c-8.262 0-15 6.739-15 15 0 8.262 6.738 15 15 15 8.261 0 15-6.739 15-15 0-8.262-6.738-15-15-15zM75 302.5c-8.262 0-15 6.738-15 15 0 8.261 6.738 15 15 15s15-6.739 15-15c0-8.262-6.738-15-15-15zM135 302.5c-8.262 0-15 6.738-15 15 0 8.261 6.738 15 15 15 8.261 0 15-6.739 15-15 0-8.262-6.738-15-15-15zM195 302.5c-8.262 0-15 6.738-15 15 0 8.261 6.738 15 15 15 8.261 0 15-6.739 15-15 0-8.262-6.738-15-15-15z" fill="#00aeef" opacity="1" data-original="#000000" class=""></path><path d="M503.182 234.315 390 183.123V15c0-8.284-6.716-15-15-15H15C6.716 0 0 6.716 0 15v363c0 8.284 6.716 15 15 15h181v62H72.5c-8.284 0-15 6.716-15 15s6.716 15 15 15h262.807l31.704 23.966a14.975 14.975 0 0 0 9.045 3.034c3.187 0 6.374-1.013 9.051-3.038l84.819-64.178C497.452 423.958 512 389.826 512 346.078v-98.096c0-5.892-3.45-11.238-8.818-13.667zm-254.362-.018a14.989 14.989 0 0 0-7.574 7.703H30v-91h330v33.026l-111.18 50.271zM30 30h330v91H30V30zm0 242h210v74.045c0 5.827.266 11.478.779 16.955H30v-91zm196 183v-62h20.675c6.803 21.614 18.728 39.158 35.444 51.794L295.621 455H226zm256-108.922c0 34.472-10.152 59.633-30.174 74.782l-75.772 57.333-75.843-57.331c-13.828-10.453-22.952-25.676-27.283-45.435a15.165 15.165 0 0 0-.199-.957c-1.811-8.631-2.728-18.108-2.728-28.425v-88.401L376 209.717l106 47.945v88.416z" fill="#00aeef" opacity="1" data-original="#000000" class=""></path><path d="m368.364 343.256-14.236-14.236c-5.857-5.857-15.355-5.857-21.213 0-5.858 5.857-5.858 15.355 0 21.213l24.843 24.843a14.948 14.948 0 0 0 10.606 4.394c3.838 0 7.678-1.465 10.606-4.394l51.91-51.909c5.858-5.857 5.858-15.355 0-21.213-5.858-5.858-15.355-5.858-21.213 0l-41.303 41.302z" fill="#00aeef" opacity="1" data-original="#000000" class=""></path></g></svg>