<svg xmlns="http://www.w3.org/2000/svg" xmlns:xlink="http://www.w3.org/1999/xlink" width="512" height="512" x="0" y="0" viewBox="0 0 512 512" style="enable-background:new 0 0 512 512" xml:space="preserve" class=""><g><circle cx="467" cy="256" r="30" style="stroke-width:30;stroke-linecap:round;stroke-linejoin:round;stroke-miterlimit:10;" fill="none" stroke="#00aeef" stroke-width="30" stroke-linecap="round" stroke-linejoin="round" stroke-miterlimit="10" data-original="#000000" opacity="1"></circle><circle cx="45" cy="256" r="30" style="stroke-width:30;stroke-linecap:round;stroke-linejoin:round;stroke-miterlimit:10;" fill="none" stroke="#00aeef" stroke-width="30" stroke-linecap="round" stroke-linejoin="round" stroke-miterlimit="10" data-original="#000000" opacity="1"></circle><circle cx="405.2" cy="106.8" r="30" style="stroke-width:30;stroke-linecap:round;stroke-linejoin:round;stroke-miterlimit:10;" fill="none" stroke="#00aeef" stroke-width="30" stroke-linecap="round" stroke-linejoin="round" stroke-miterlimit="10" data-original="#000000" opacity="1"></circle><circle cx="106.8" cy="405.2" r="30" style="stroke-width:30;stroke-linecap:round;stroke-linejoin:round;stroke-miterlimit:10;" fill="none" stroke="#00aeef" stroke-width="30" stroke-linecap="round" stroke-linejoin="round" stroke-miterlimit="10" data-original="#000000" opacity="1"></circle><circle cx="256" cy="45" r="30" style="stroke-width:30;stroke-linecap:round;stroke-linejoin:round;stroke-miterlimit:10;" fill="none" stroke="#00aeef" stroke-width="30" stroke-linecap="round" stroke-linejoin="round" stroke-miterlimit="10" data-original="#000000" opacity="1"></circle><circle cx="256" cy="467" r="30" style="stroke-width:30;stroke-linecap:round;stroke-linejoin:round;stroke-miterlimit:10;" fill="none" stroke="#00aeef" stroke-width="30" stroke-linecap="round" stroke-linejoin="round" stroke-miterlimit="10" data-original="#000000" opacity="1"></circle><circle cx="106.8" cy="106.8" r="30" style="stroke-width:30;stroke-linecap:round;stroke-linejoin:round;stroke-miterlimit:10;" fill="none" stroke="#00aeef" stroke-width="30" stroke-linecap="round" stroke-linejoin="round" stroke-miterlimit="10" data-original="#000000" opacity="1"></circle><circle cx="405.2" cy="405.2" r="30" style="stroke-width:30;stroke-linecap:round;stroke-linejoin:round;stroke-miterlimit:10;" fill="none" stroke="#00aeef" stroke-width="30" stroke-linecap="round" stroke-linejoin="round" stroke-miterlimit="10" data-original="#000000" opacity="1"></circle><path d="M321 176a39.872 39.872 0 0 0-15.527 3.128C302.116 154.774 281.276 136 256 136s-46.116 18.774-49.473 43.128A39.872 39.872 0 0 0 191 176c-22.091 0-40 17.909-40 40s17.909 40 40 40h130c22.091 0 40-17.909 40-40s-17.909-40-40-40zM286 376v-60l30 20M226 316v60l-30-20M464.879 226.083c-5.098-35.911-19.224-68.914-40.026-96.627M424.853 382.544c20.802-27.713 34.928-60.716 40.026-96.627M285.917 464.879c35.911-5.098 68.914-19.224 96.627-40.026M129.456 424.853c27.713 20.802 60.716 34.928 96.627 40.026M47.121 285.917c5.098 35.911 19.224 68.914 40.026 96.627M87.147 129.456c-20.802 27.713-34.928 60.716-40.026 96.627M226.083 47.121c-35.911 5.098-68.914 19.224-96.627 40.026M382.544 87.147c-27.713-20.802-60.716-34.928-96.627-40.026" style="stroke-width:30;stroke-linecap:round;stroke-linejoin:round;stroke-miterlimit:10;" fill="none" stroke="#00aeef" stroke-width="30" stroke-linecap="round" stroke-linejoin="round" stroke-miterlimit="10" data-original="#000000" opacity="1"></path></g></svg>